<?xml version="1.0" encoding="utf-8"?>
<!-- Generator: Adobe Illustrator 15.0.0, SVG Export Plug-In . SVG Version: 6.00 Build 0)  -->
<!DOCTYPE svg PUBLIC "-//W3C//DTD SVG 1.1//EN" "http://www.w3.org/Graphics/SVG/1.1/DTD/svg11.dtd">
<svg version="1.1" id="Layer_1" xmlns="http://www.w3.org/2000/svg" xmlns:xlink="http://www.w3.org/1999/xlink" x="0px" y="0px"
	 width="141.73px" height="141.73px" viewBox="0 0 141.73 141.73" enable-background="new 0 0 141.73 141.73" xml:space="preserve">
<g>
	<rect width="141.729" height="141.731"/>
	<g>
		<path fill="#FFFFFF" d="M113.202,20.478v22.361h9.252V20.478h7.979v-6.825h-25.258v6.825H113.202z M82.798,13.653h-9.254v18.412
			c0,8.155,6.278,11.46,13.833,11.46s13.831-3.305,13.831-11.46V13.653h-9.251v17.64c0,3.305-1.983,4.764-4.58,4.764
			c-2.596,0-4.579-1.459-4.579-4.764V13.653z M47.768,42.838h11.424l10.245-29.186H59.052l-5.477,20.559h-0.191l-5.475-20.559
			H37.522L47.768,42.838z M9.623,28.246c0,9.313,7.222,15.066,16.664,15.066c3.826,0,7.034-0.903,8.97-1.806v-7.337
			c-1.84,0.9-3.967,1.673-7.318,1.673c-3.352,0-8.214-2.318-8.214-7.596c0-5.28,4.438-7.769,8.732-7.769
			c2.928,0,4.96,0.6,6.754,1.416V14.64c-1.89-0.771-4.25-1.374-8.026-1.374C17.693,13.267,9.623,18.932,9.623,28.246"/>
	</g>
	<polygon fill="#FFFFFF" points="15.607,6.194 21.649,12.368 30.734,12.368 36.777,6.194 29.279,6.194 26.281,9.161 26.105,9.161 
		23.104,6.194 	"/>
	<g>
		<path fill="#FFFFFF" d="M35.394,101.575v6.665H22.673v4.771h12.579v6.494H22.673v11.308h-9.27v-29.238H35.394z"/>
		<path fill="#FFFFFF" d="M41.074,101.575h22.178v6.665H50.343v4.688h12.484v6.491H50.343v4.73h12.909v6.664H41.074V101.575z"/>
		<path fill="#FFFFFF" d="M69.833,101.575H79.1v22.315h11.493v6.923h-20.76V101.575z"/>
	</g>
</g>
</svg>
