<?xml version="1.0" encoding="utf-8"?>
<!-- Generator: Adobe Illustrator 15.0.0, SVG Export Plug-In . SVG Version: 6.00 Build 0)  -->
<!DOCTYPE svg PUBLIC "-//W3C//DTD SVG 1.1//EN" "http://www.w3.org/Graphics/SVG/1.1/DTD/svg11.dtd">
<svg version="1.1" id="Layer_1" xmlns="http://www.w3.org/2000/svg" xmlns:xlink="http://www.w3.org/1999/xlink" x="0px" y="0px"
	 width="690px" height="226.77px" viewBox="0 0 690 226.77" enable-background="new 0 0 690 226.77" xml:space="preserve">
<g>
	<g>
		<path fill="#FFFFFF" d="M510.678,209.651h18.866v-6.233h-10.981v-4.427h10.62v-6.074h-10.62v-4.385h10.981v-6.236h-18.866V209.651
			z M483.159,209.651h21.483v-6.394h-11.829l11.628-15.21v-5.752h-21.042v6.396h11.185l-11.425,14.927V209.651z M464.088,198.388
			l2.698-10.098h0.361l2.693,10.098H464.088z M472.858,209.651h8.089l-8.208-27.355h-11.548l-8.167,27.355h8.087l1.489-5.671h8.729
			L472.858,209.651z M435.767,194.927v-6.797h3.179c2.131,0,3.378,1.649,3.378,3.377c0,1.733-1.247,3.42-3.378,3.42H435.767z
			 M427.881,209.651h7.886v-9.614h2.011l4.747,9.614h8.892l-5.028-8.446c-0.523-0.887-1.167-1.688-1.53-1.931l0.041-0.162
			c2.414-1.086,5.834-3.139,5.834-7.804c0-4.908-3.901-9.013-10.3-9.013h-12.552V209.651z M407.645,194.927v-6.758h3.098
			c1.729,0,3.299,1.449,3.299,3.379c0,1.974-1.569,3.379-3.299,3.379H407.645z M399.761,209.651h7.884v-8.849h4.023
			c6.398,0,10.379-4.064,10.379-9.093s-3.98-9.414-10.379-9.414h-11.907V209.651z M365.645,209.651h10.782l8.206-27.355h-8.85
			l-4.668,20.479h-0.16l-4.667-20.479h-8.85L365.645,209.651z M331.648,209.651h7.886v-20.959h6.799v-6.396h-21.522v6.396h6.838
			V209.651z M308.074,210.296c6.436,0,11.786-3.097,11.786-10.738v-17.262h-7.884v16.535c0,3.098-1.69,4.466-3.902,4.466
			c-2.213,0-3.901-1.368-3.901-4.466v-16.535h-7.887v17.262C296.286,207.199,301.639,210.296,308.074,210.296 M272.47,209.651
			h10.783l8.206-27.355h-8.85l-4.667,20.479h-0.162l-4.666-20.479h-8.85L272.47,209.651z M253.36,210.097
			c3.26,0,5.995-0.846,7.646-1.689v-6.881c-1.569,0.846-3.381,1.569-6.236,1.569c-2.856,0-7-2.172-7-7.122
			c0-4.946,3.781-7.281,7.441-7.281c2.495,0,4.226,0.562,5.752,1.329v-6.801c-1.608-0.724-3.619-1.286-6.838-1.286
			c-8.087,0-14.968,5.31-14.968,14.039C239.158,204.704,245.314,210.097,253.36,210.097 M249.136,180.646h8.288l5.513-6.195h-6.84
			l-2.737,2.979h-0.16l-2.736-2.979h-6.838L249.136,180.646z"/>
		<path fill="#FFFFFF" d="M648.185,157.422l2.693-10.1h0.363l2.693,10.1H648.185z M656.952,168.687h8.086l-8.206-27.356h-11.545
			l-8.167,27.356h8.085l1.488-5.672h8.732L656.952,168.687z M659.248,133.484h-9.174l-3.179,6.194h6.68L659.248,133.484z
			 M637.44,168.687l-9.252-14.122l9.135-13.234h-9.619l-7.644,12.59v-12.59h-7.883v27.356h7.883V155.53l7.929,13.156H637.44z
			 M598.576,169.128c3.261,0,5.997-0.844,7.645-1.688v-6.879c-1.569,0.844-3.377,1.567-6.234,1.567c-2.854,0-7-2.173-7-7.119
			c0-4.95,3.783-7.282,7.444-7.282c2.495,0,4.221,0.562,5.751,1.327v-6.799c-1.608-0.725-3.619-1.288-6.836-1.288
			c-8.089,0-14.968,5.312-14.968,14.042C584.378,163.738,590.534,169.128,598.576,169.128 M570.055,168.687h7.886V141.33h-7.886
			V168.687z M536.101,168.687h7.886v-16.414h0.119l8.291,16.414h9.611V141.33h-7.882v16.334h-0.121l-8.207-16.334h-9.697V168.687z
			 M504.197,141.33v27.356h7.887v-10.702h8.087v10.702h7.886V141.33h-7.886v10.46h-8.087v-10.46H504.197z M490.6,169.128
			c3.26,0,5.995-0.844,7.646-1.688v-6.879c-1.569,0.844-3.381,1.567-6.236,1.567c-2.856,0-7-2.173-7-7.119
			c0-4.95,3.781-7.282,7.44-7.282c2.495,0,4.227,0.562,5.753,1.327v-6.799c-1.608-0.725-3.619-1.288-6.838-1.288
			c-8.087,0-14.968,5.312-14.968,14.042C476.397,163.738,482.554,169.128,490.6,169.128 M451.939,168.687h18.867v-6.236h-10.983
			v-4.425h10.623v-6.075h-10.623v-4.386h10.983v-6.234h-18.867V168.687z M432.107,168.687h7.882v-20.96h6.801v-6.396h-21.522v6.396
			h6.84V168.687z M408.893,162.329c-3.5,0-5.269-2.814-5.269-7.32c0-4.509,1.769-7.321,5.269-7.321c3.538,0,5.189,2.812,5.189,7.321
			C414.082,159.515,412.431,162.329,408.893,162.329 M408.893,169.329c8.167,0,13.638-5.188,13.638-14.32
			c0-9.133-5.471-14.323-13.638-14.323c-8.129,0-13.719,5.19-13.719,14.323C395.174,164.141,400.764,169.329,408.893,169.329
			 M375.42,153.961v-6.799h3.178c2.133,0,3.381,1.651,3.381,3.381s-1.248,3.418-3.381,3.418H375.42z M367.533,168.687h7.887v-9.613
			h2.012l4.748,9.613h8.891l-5.028-8.45c-0.524-0.884-1.167-1.688-1.53-1.929l0.041-0.16c2.415-1.089,5.835-3.139,5.835-7.808
			c0-4.907-3.904-9.01-10.301-9.01h-12.554V168.687z M347.701,168.687h7.887v-20.96h6.797v-6.396h-21.523v6.396h6.84V168.687z
			 M339.856,168.687l-9.254-14.122l9.133-13.234h-9.615l-7.644,12.59v-12.59h-7.885v27.356h7.885V155.53l7.925,13.156H339.856z
			 M288.523,168.687h18.866v-6.236h-10.982v-4.425h10.621v-6.075h-10.621v-4.386h10.982v-6.234h-18.866V168.687z M266.837,168.687
			h17.661v-6.477h-9.775v-20.88h-7.886V168.687z M240.768,168.687h18.87v-6.236h-10.984v-4.425h10.621v-6.075h-10.621v-4.386h10.984
			v-6.234h-18.87V168.687z"/>
		<path fill="#FFFFFF" d="M403.583,116.456l2.695-10.098h0.363l2.693,10.098H403.583z M412.354,127.721h8.087l-8.208-27.359h-11.547
			l-8.167,27.359h8.086l1.489-5.673h8.73L412.354,127.721z M377.715,127.721h7.885v-20.96h6.799v-6.399h-21.525v6.399h6.842V127.721
			z M353.737,127.721h17.661v-6.479h-9.777v-20.881h-7.884V127.721z M334.104,128.364c6.438,0,11.787-3.1,11.787-10.741v-17.262
			h-7.884v16.535c0,3.098-1.692,4.465-3.903,4.465c-2.214,0-3.902-1.367-3.902-4.465v-16.535h-7.886v17.262
			C322.316,125.265,327.668,128.364,334.104,128.364 M318.615,127.721l-9.253-14.121l9.134-13.238h-9.615l-7.646,12.594v-12.594
			h-7.884v27.359h7.884v-13.156l7.926,13.156H318.615z M272.27,116.456l2.695-10.098h0.361l2.698,10.098H272.27z M281.04,127.721
			h8.087l-8.208-27.359h-11.546l-8.165,27.359h8.085l1.489-5.673h8.729L281.04,127.721z M240.768,100.361v27.359h7.886v-10.582
			h10.701v-6.074h-10.701V106.6h10.822v-6.239H240.768z"/>
	</g>
	<path fill="#FFFFFF" d="M211.219,209.651H19.994V18.427h191.226V209.651z M21.833,207.814H209.38V20.266H21.833V207.814z"/>
	<g>
		<path fill="#FFFFFF" d="M174.981,101.353l4.899-3.576c-1.853-1.985-3.84-4.369-3.84-8.207c0-2.912,1.987-6.092,4.501-7.414
			c-1.324-1.589-3.441-3.045-6.486-3.045c-3.973,0-7.281,2.912-7.281,6.75c0,2.647,1.72,4.899,3.707,5.958
			C170.481,95.526,172.203,98.835,174.981,101.353 M148.771,75.271l4.103-7.281h-6.09c0,1.324-1.192,2.78-2.648,2.78
			c-1.587,0-2.647-1.058-2.647-2.78h-5.429c0,1.589-1.19,2.78-2.646,2.78c-1.457,0-2.649-1.191-2.649-2.78h-6.09l3.576,7.016
			c2.781-0.262,5.426-0.395,8.075-0.395C141.223,74.611,145.461,74.875,148.771,75.271 M137.649,139.877
			c-0.662-1.192-1.323-2.65-1.323-5.295c0-3.441,1.985-6.354,6.223-8.21c2.779-1.322,4.897-2.515,8.604-4.367
			c8.737-4.501,11.782-12.975,11.782-21.711c0-4.371-1.193-7.81-2.647-10.723c0.396,2.382,0.792,4.369,0.792,6.75
			c0,9.135-3.176,15.887-11.517,19.993c-5.295,2.645-7.942,3.704-11.121,5.293c-4.501,2.382-7.017,5.429-7.017,9.136
			C131.426,135.376,133.81,138.815,137.649,139.877 M132.486,138.155c-1.455-1.458-3.045-4.103-3.045-7.546
			c0-4.368,2.913-8.075,8.076-10.725c4.501-2.117,7.148-3.178,11.12-5.029c8.341-4.105,10.855-11.121,10.855-18.666
			c0-7.283-2.381-10.989-4.367-13.373c1.455,2.779,1.853,6.09,1.853,8.872c0,8.075-2.383,15.091-11.782,18.799
			c-4.767,1.983-7.81,2.647-11.915,4.497c-6.486,3.048-9.002,6.621-9.002,11.915C124.278,131.933,127.456,136.697,132.486,138.155
			 M127.456,137.096c-2.251-1.853-5.163-4.897-5.163-10.326c0-5.693,2.381-9.928,9.795-13.107c4.767-1.983,7.283-2.912,11.784-4.632
			c9.531-3.574,11.517-10.591,11.517-17.476c0-6.617-2.383-10.458-5.296-12.973c1.722,2.118,2.782,5.694,2.782,9.4
			c0,8.735-3.311,13.635-12.709,16.945c-3.839,1.191-7.942,2.383-12.18,3.972c-7.677,2.913-11.649,7.148-11.649,14.296
			C116.335,130.609,122.027,136.171,127.456,137.096 M122.16,136.171c-5.296-2.649-7.812-8.341-7.812-13.373
			c0-7.281,4.501-12.444,12.048-15.226c4.636-1.72,8.341-2.778,12.975-4.367c9.003-3.178,11.915-7.414,11.915-15.489
			c0-4.634-1.722-8.604-4.501-10.855c0.927,1.06,1.191,2.383,1.191,3.574c0,2.249-1.191,3.311-2.912,3.311
			c-1.06,0-2.118-0.664-2.251-1.722c0.529,0.395,0.927,0.529,1.457,0.529c1.456,0,2.25-1.06,2.25-2.516
			c0-2.25-2.118-3.443-4.236-3.705c-1.854-0.267-3.84-0.267-6.088-0.267c-2.252,0-4.371,0.133-7.15,0.267
			c1.72,2.381,7.414,1.72,9.133,2.913c-1.456-0.133-2.913-0.133-4.369,0.262c0,0.929-0.396,1.987-1.323,1.987
			c-1.722,0-2.514-1.853-3.707-5.161l-6.752,0.529c-1.058,0.131-1.456,0.529-1.323,1.321l0.662,6.621
			c0,0.266,0.266,0.396,0.531,0.396c0.264,0,0.527-0.131,0.662-0.529c0.263-0.531,1.06-1.722,3.043-1.722
			c2.912,0,5.163,2.647,5.296,5.692c-1.06-1.455-3.441-2.78-7.414-2.78c-3.045,0-5.56,0.927-9.532,0.927
			c-4.236,0-6.619-1.589-6.619-3.574c0-0.927,0.133-1.456,0.662-2.12c-1.722,0.794-3.045,2.252-3.045,4.634
			c0,2.913,2.12,5.959,8.339,5.959c5.694,0,8.343-3.576,13.506-3.576c2.381,0,3.574,1.191,3.574,2.516c0,1.191-1.06,2.25-2.912,2.25
			c-2.251,0-3.838-1.19-4.634-2.383c-0.133-0.265-0.263-0.398-0.529-0.398c-0.396,0-0.531,0.265-0.531,0.531l0.134,6.355
			c0,0.793,0.396,1.191,1.324,1.058c3.97-0.398,8.075-0.927,11.915-1.19c7.148-0.662,12.046-5.431,12.046-10.724
			c0-0.792,0-1.457-0.131-2.251c0.662,1.06,0.925,2.118,0.925,3.441c0,4.899-2.647,8.604-11.121,10.857
			c-4.501,1.191-7.81,1.722-11.649,2.647c-10.195,2.383-16.812,10.193-16.812,18.933C108.393,127.83,114.085,135.11,122.16,136.171
			 M77.809,88.378c0.531-1.191,0.662-2.25,0.662-3.043c0-1.724-0.792-3.311-1.587-3.973c1.985,0,3.707,1.455,3.707,3.441
			C80.591,86.659,79.4,87.849,77.809,88.378 M102.17,119.885l4.236-2.248c1.456-8.87,6.752-15.093,16.018-17.343
			c-4.897,0.263-9.135,0.396-15.091,0.662c-6.354,0.263-16.812,1.06-24.093,1.589c-1.458,0.133-2.383-0.398-2.782-1.589
			c-0.396-1.324-1.19-3.84-1.323-5.294c-0.133-1.194,0.133-1.987,1.192-2.782c2.116-1.458,4.236-3.178,4.236-6.751
			c0-3.84-3.311-6.356-6.355-6.356c-1.058,0-1.853,0.133-2.514,0.398c-0.794-0.529-1.589-0.925-3.178-0.925
			c-2.25,0-4.236,1.454-4.765,2.645c-3.84-0.264-6.885,2.516-6.621,6.223c0.531-0.529,1.589-1.058,2.781-1.058
			c1.454,0,2.78,1.058,2.78,2.647c0,1.458-0.266,3.309-0.266,5.296c0,6.09,4.899,9.268,4.899,12.444
			c0,1.589-1.192,2.912-2.781,2.912c0.927,3.309,3.972,5.03,8.075,5.03c2.649,0,5.032-0.264,8.872-0.264
			C96.478,115.12,101.243,116.313,102.17,119.885 M142.945,157.352h1.324c-0.133-4.236-1.191-7.148-2.911-10.193
			c-0.929-1.722-2.12-3.574-3.047-4.767c-0.529-0.795-1.191-1.058-1.985-1.058c-0.529,0-0.927,0.394-0.529,1.058
			c1.058,1.72,2.514,4.368,4.368,8.472c-1.589,0.266-1.987,1.06-1.987,2.383C138.178,155.364,140.165,157.352,142.945,157.352
			 M72.648,88.907c0.131-3.707-1.457-5.692-3.707-6.619c0.396-0.131,0.925-0.398,1.722-0.398c1.72,0,3.574,1.458,3.574,3.707
			C74.237,86.79,73.839,88.113,72.648,88.907 M157.507,182.106c-0.529-1.19-2.251-2.382-4.369-2.382
			c-1.191,0-1.985,0.264-2.514,0.529c0.131-1.06,1.19-2.25,3.311-2.25C156.449,178.004,157.772,179.988,157.507,182.106
			 M156.712,187.801c-0.794-0.928-2.118-1.722-3.838-1.722c-2.12,0-3.178,0.927-3.708,1.589c-0.264-1.589,1.06-3.574,3.576-3.574
			C155.389,184.094,156.712,185.948,156.712,187.801 M62.588,124.652c0.925-2.253,3.043-3.838,5.557-4.369
			c0.531-0.796,1.193-1.456,1.856-1.987L65.5,99.499c-0.531-1.323-0.927-2.646-0.927-4.501c0-1.987,0.396-3.972,0.396-5.03
			c0-0.927-0.529-1.191-1.058-1.191c-0.398,0-0.662,0-0.794,0.131v0.531c0,3.045-1.854,5.426-4.899,5.426
			c-3.043,0-5.428-2.514-5.428-5.426c0-2.913,2.385-5.298,5.428-5.298c0.529,0,1.193,0,1.985,0.266
			c0.927-2.382,3.839-4.501,6.884-4.103c-2.118-2.647-5.295-4.238-8.87-4.238c-7.677,0-13.767,5.561-13.767,13.373
			c0,7.279,5.957,13.105,13.371,13.238L62.588,124.652z M83.107,153.115c1.985,0,4.103-1.062,6.088-3.045
			c3.574-3.443,8.606-8.604,11.651-10.591c2.647-1.722,4.368-2.384,6.088-2.384c1.06,0,1.854,0.266,2.649,1.06l4.501-3.442
			c-5.163-3.838-7.546-8.87-7.679-15.091c-7.148,3.839-12.311,9.135-18.271,14.165c-1.056,0.795-1.587,1.19-2.514,1.19
			s-1.72-0.925-3.309-2.514c-1.323-1.323-1.591-2.12-1.591-3.045c0-1.589,0.531-2.12,0.531-4.238c0-4.235-3.309-6.619-6.486-6.619
			c-2.649,0-4.634,1.456-5.296,3.311c-3.576,0.266-5.827,2.913-5.827,5.692c0,0.663,0.135,1.192,0.268,1.589
			c-1.323,0.794-2.649,2.381-2.649,4.501c0,2.249,1.191,4.369,3.178,5.03c-0.266-0.396-0.398-0.927-0.398-1.589
			c0-1.192,1.06-2.251,2.516-2.251c1.193,0,1.985,0.398,2.912,1.457c1.193,1.589,2.384,3.045,4.369,4.767
			c1.854,1.589,3.97,2.646,5.958,3.839c1.193,0.795,2.118,1.853,2.118,3.441c0,1.061-0.795,2.251-2.384,2.649
			C80.193,152.452,81.518,153.115,83.107,153.115 M75.559,127.299c-0.131-2.646-2.116-4.765-4.632-5.294
			c0.398-0.266,1.06-0.661,2.118-0.661c1.854,0,3.311,1.587,3.311,3.309C76.355,125.976,75.957,126.639,75.559,127.299
			 M90.255,196.934c-0.529-0.659-0.794-1.323-0.794-2.118c0-1.587,1.324-2.781,3.178-2.781c2.91,0,4.501,3.18,8.341,3.18
			c4.368,0,6.486-3.18,10.457-3.18c1.987,0,4.767,1.194,4.767,3.709c0,0.398-0.133,0.792-0.396,1.06
			c4.501,0,7.677-3.839,7.677-10.195c0-8.869-0.264-12.443-0.396-17.341c3.441-0.133,6.75-1.854,6.221-7.281
			c-0.925,0.793-1.985,1.19-3.176,1.19c-1.589,0-2.781-1.19-2.781-2.912c0-0.796,0-1.722,0.133-2.646l15.489-0.398
			c-1.456-0.795-2.514-2.384-2.514-4.235c0-1.324,0.529-2.253,1.589-2.78c-1.458-3.045-2.649-5.428-4.105-7.679
			c-0.794-1.19-1.72-2.382-3.574-2.382c-4.105-0.135-12.444,1.059-16.682,2.515c-3.176,1.058-6.221,3.441-6.221,8.869
			c0,5.028,1.72,13.9,1.589,27.801c0,1.987-0.531,2.648-1.722,2.912c-1.06,0.266-3.839,0.531-5.561,0.266
			c-0.925-0.133-1.72-0.797-2.251-2.78c-0.662-2.779-2.646-5.561-6.617-5.561c-3.576,0-6.752,2.648-6.223,6.619
			c-1.722,1.062-2.516,2.781-2.516,4.368c0,1.589,0.529,2.912,1.19,3.709c-0.396,0.925-0.527,1.454-0.527,2.382
			C84.829,194.553,87.741,196.934,90.255,196.934 M71.588,130.875c-0.794-1.591-2.514-2.517-4.501-2.517
			c-0.794,0-1.456,0.131-1.985,0.264c0.263-1.058,1.456-1.983,3.178-1.983C70.53,126.639,71.986,128.358,71.588,130.875
			 M94.756,182.106c-0.529-1.19-2.25-2.382-4.369-2.382c-1.192,0-1.985,0.264-2.516,0.529c0.133-1.06,1.193-2.25,3.311-2.25
			C93.696,178.004,95.02,179.988,94.756,182.106 M83.503,193.625c-0.396-0.794-0.531-1.591-0.531-2.383
			c0-0.793,0.135-1.457,0.398-2.12c-0.662-1.19-1.058-2.515-1.058-3.971c0-1.985,0.927-3.837,2.25-5.028l-8.208-35.613
			c-1.325-0.662-2.649-1.454-3.707-2.384c-1.854-1.589-2.913-2.779-4.634-4.765c-0.529-0.529-0.927-0.795-1.456-0.795
			c-0.794,0-1.325,0.529-1.058,1.589l1.72,8.207l3.574,2.518l9.928,42.627L83.503,193.625z M93.962,187.801
			c-0.794-0.928-2.118-1.722-3.839-1.722c-2.118,0-3.178,0.927-3.707,1.589c-0.264-1.589,1.06-3.574,3.576-3.574
			C92.639,184.094,93.962,185.948,93.962,187.801 M28.563,197.729l8.075-6.222l9.932-42.627l3.572-2.518l7.944-34.154l-1.722-7.942
			c-1.987-0.398-3.708-0.929-5.163-1.722L28.563,197.729z M153.005,196.934c-0.529-0.659-0.792-1.323-0.792-2.118
			c0-1.587,1.323-2.781,3.176-2.781c2.913,0,4.501,3.18,8.341,3.18c4.369,0,6.486-3.18,10.459-3.18c1.987,0,4.765,1.194,4.765,3.709
			c0,0.398-0.133,0.792-0.396,1.06c4.501,0,7.677-3.839,7.677-10.195c0-8.472-0.792-17.87-1.72-27.271
			c2.381-0.529,4.632-2.913,4.632-5.956c0-1.06-0.395-2.252-1.058-3.311c-0.662,0.928-1.854,1.722-3.838,2.251
			c-2.781,0.794-6.223,1.19-8.739,1.19c-5.694,0-7.546-0.396-10.193-1.19c-0.133-3.574-2.383-6.488-4.501-8.474
			c3.309,1.323,4.765,1.985,10.061,1.985c16.945,0,27.403-11.384,27.403-24.358c0-9.401-5.957-13.768-11.386-16.946l-5.028,3.574
			c6.088,2.78,10.061,6.882,10.061,12.446c0,6.09-4.897,10.459-10.589,10.459c-6.092,0-10.857-4.369-10.857-10.328
			c0-4.499,2.118-7.81,6.088-10.988c3.972-3.176,10.062-7.015,13.373-10.589c1.721-1.856,3.176-4.769,3.043-7.018
			c2.25-1.06,3.972-3.309,3.972-6.223c0-3.838-3.705-6.75-7.677-6.75c-2.385,0-5.03,1.456-6.355,3.045
			c2.383,0.925,4.634,4.103,4.634,7.414c0,2.78-1.719,5.161-3.707,7.146c-3.045,3.047-7.016,5.297-11.386,8.872
			c-5.296,4.369-8.474,9.531-8.474,15.356c0,8.075,6.223,15.621,16.02,15.621c3.178,0,5.692-0.663,7.546-1.854
			c-3.178,3.706-9.133,5.561-15.356,5.561c-5.429,0-9.135-0.794-13.105-3.707c-3.576-2.646-6.356-8.869-6.223-13.503
			c-2.912,1.722-6.355,3.309-9.266,4.634c-4.107,1.985-5.43,4.103-5.43,7.679c0,4.767,3.311,8.472,4.767,11.251
			c1.985,3.576,2.647,6.754,2.913,10.061c0.794,8.077,5.428,11.782,13.634,11.782c3.709,0,8.606-0.262,10.591-0.526
			c0.795,3.706,1.722,8.073,1.722,11.384c0,1.987-0.529,2.648-1.722,2.912c-1.058,0.266-3.839,0.531-5.559,0.266
			c-0.925-0.133-1.722-0.797-2.25-2.78c-0.662-2.779-2.647-5.561-6.619-5.561c-3.576,0-6.752,2.648-6.223,6.619
			c-1.72,1.062-2.516,2.781-2.516,4.368c0,1.589,0.531,2.912,1.193,3.709c-0.396,0.925-0.531,1.454-0.531,2.382
			C147.577,194.553,150.491,196.934,153.005,196.934"/>
	</g>
</g>
</svg>
