<?xml version="1.0" encoding="UTF-8"?>
<svg id="Layer_1" data-name="Layer 1" xmlns="http://www.w3.org/2000/svg" viewBox="0 0 1080 1080">
  <defs>
    <style>
      .cls-1 {
        fill: #7dced2;
      }

      .cls-2 {
        fill: #f9bf6e;
      }

      .cls-3 {
        fill: #868b80;
      }

      .cls-4 {
        fill: #664025;
      }

      .cls-5 {
        fill: #0a0b0c;
      }

      .cls-6 {
        fill: #eaf6f6;
      }

      .cls-7 {
        fill: #92d3c7;
      }

      .cls-8 {
        fill: #fff;
      }

      .cls-9 {
        fill: #faf0d8;
      }

      .cls-10 {
        fill: #fce1ad;
      }
    </style>
  </defs>
  <circle class="cls-1" cx="540" cy="540" r="540"/>
  <g>
    <path class="cls-1" d="M835.28,951.09c-25.38-2.27-50.74-5.84-76.34-5.8-4.05-12.26,9.4-34.24,6.76-43.49-4.59-16.11-60.32-17.27-74.41-16.43-3.24-1.3,6.38-31.82,8.7-37.69,8.19-20.72,23.69-39.87,31.89-60.88,73.09-3.74,151.67,21.17,214.53-27.06,30.67-23.53,52.17-58.53,55.08-97.6,1.09-14.65-3.55-89.65-20.29-91.8-20.47-2.64-9.46,42.98-10.63,57.02-8.8,105.22-125.13,134.12-206.8,86.97l-8.7-39.62c13.19,32.47,79,64.4,74.41,4.83-5.29-68.69-89.75-133.42-143.02-168.15,27.78-16.14,47.83-42.88,53.15-74.41l68.61,37.69c-9.86-10.54-21.67-20.32-33.82-28.02-25.34-16.07-38.53-4.08-39.62-45.42l33.82,4.83,43.49,16.43c-10.75-4.98-20.72-12.34-31.89-16.43-22.42-8.21-56.11-4.09-57.98-32.86l99.54,10.63c-25.24-19.35-85.61-7.71-105.33-14.5-2.79-.96-32.22-40.3-37.69-45.42,114.49-56.75-3.43-214.13-64.75-62.81-40.4-23.53-89.15-24.13-129.49,0-16.58-42.8-73.77-103.99-105.33-35.76-21.49,46.46.3,77.67,40.59,100.5-6.63,4.07-31.22,42.58-33.82,43.49-15.25,5.34-59.68-1.31-78.28,12.56,9.83.63,72.65-15.68,75.38-5.8-10.09,26.42-23.07,19.14-43.49,28.02-11,4.79-21.26,10.93-31.89,16.43,7.93,3.02,23.12-9.54,31.89-12.56,3.38-1.17,29.15-8.2,29.96-6.76,5.95,44.23-29.26,35.25-52.18,61.85l49.28-26.09c5.84,33.99,26.12,60.64,57.02,76.34-3.45,5.59-64.91,1.05-74.41-.97-7.04-1.5-54.04-21.27-57.98-25.13-7.28-7.11-6.15-21.64-10.63-29.96-6.18-11.47-21.52-19.22-21.26-40.59,105.88-45.75,88.23-213.57-26.09-229.03-169.65-22.95-189.04,234.89-16.43,238.69,8.98,38.93,8.27,78.49,19.33,117.9,8.39,29.88,39.06,108.93,68.61,49.28,22.42,20.14,46.7,35.95,76.34,43.49-17.55,45.79-.53,105.62,19.33,148.82,15.49,33.7,43.16,60.8,54.12,96.64-2.76,6.29-72.98-3.54-75.38,23.19-.59,6.55,12.26,24.44,6.76,35.76-47.35,1.78-94.89,3.7-142.05,7.73C-4.37,778.46-55.18,431.64,139.5,198.3c225.22-269.95,660.02-238.69,844.6,59.91,144.64,234,73.58,537.81-148.82,692.88Z"/>
    <path class="cls-5" d="M1008.26,493.04c5.83,10.69,5.98,15.98,20.29,16.43-7.66,5.94-14.98,6.89-16.43,18.36-3.31-9.4-8.53-13.35-18.36-14.5,10.76-5.36,14.27-7.58,14.5-20.29Z"/>
    <path class="cls-5" d="M915.49,330.69c4.91,13.58,2.8,17.24,18.36,22.23-8.05,3.4-13.95,7.09-14.5,16.43-5.09-9.06-6.75-13.41-18.36-14.5,13.12-6.97,14.08-9.08,14.5-24.16Z"/>
    <path class="cls-5" d="M845.91,158.68c1.13,0,5.64,16.31,16.43,12.56-8.01,6.02-13.88,6.25-14.5,18.36-5.03-9.26-6.68-14.28-18.36-14.5,10.66.33,15.2-16.42,16.43-16.43Z"/>
    <path class="cls-5" d="M834.32,560.68c5.25,14.67,8.29,19.5,24.16,22.23-11,6.94-21.14,9.96-18.36,26.09-7.06-13.12-9.05-20.46-26.09-22.23,12.01-7.81,20.7-8.89,20.29-26.09Z"/>
    <path class="cls-5" d="M302.82,810c4.75,13.8,7.56,17.14,22.23,20.29-10.94,8.55-18,9.86-18.36,26.09-4.41-13.72-9.17-20.7-24.16-22.23,11.43-6.57,20.04-8.7,20.29-24.16Z"/>
    <path class="cls-5" d="M173.33,740.43c5.23,10.5,8.46,14.03,20.29,16.43-11.32,6.84-16.28,9.48-16.43,24.16-4.45-12.53-4.3-19.85-20.29-20.29,8.73-6.22,15.71-7.64,16.43-20.29Z"/>
    <path class="cls-5" d="M233.24,788.74c5.55,9.32,7.84,11.02,18.36,14.5-8.54-.77-15.28,14.55-16.43,14.5-1.02-.05-6.25-14.32-14.5-14.5,7.69-3.23,12.02-5.48,12.56-14.5Z"/>
    <path class="cls-5" d="M830.45,259.18c5.09,9.06,6.75,13.41,18.36,14.5-7.37,5.29-14.18,5.26-14.5,16.43-3.05-9.53-7.8-11.28-16.43-14.5,7.37-3.01,14.74-7.36,12.56-16.43Z"/>
    <path class="cls-5" d="M519.39,921.06c5.48-1.33-65.44,21.9-65.44,21.9,0,0-49.45,15.47-60.05,9.55-3.03-7.49-19.27-15.37-10.48-46.83s51.64-11.6,71.12-23.19c-10.96-35.84-38.62-62.93-54.12-96.64-19.86-43.2-36.88-103.03-19.33-148.82-29.64-7.53-53.92-23.35-76.34-43.49-29.55,59.65-60.23-19.41-68.61-49.28-11.06-39.41-10.35-78.97-19.33-117.9-172.61-3.8-153.23-261.64,16.43-238.69,114.32,15.46,131.97,183.28,26.09,229.03-.26,21.37,15.08,29.12,21.26,40.59,4.48,8.31,3.35,22.85,10.63,29.96,3.94,3.85,50.94,23.63,57.98,25.13,9.5,2.02,70.96,6.56,74.41.97-30.9-15.7-51.18-42.36-57.02-76.34l-49.28,26.09c22.92-26.59,58.14-17.62,52.18-61.85-.81-1.44-26.58,5.6-29.96,6.76-8.77,3.03-23.96,15.58-31.89,12.56,10.63-5.49,20.89-11.64,31.89-16.43,20.41-8.89,33.39-1.6,43.49-28.02-2.73-9.89-65.54,6.43-75.38,5.8,18.59-13.87,63.02-7.23,78.28-12.56,2.6-.91,27.19-39.42,33.82-43.49-40.28-22.83-62.08-54.04-40.59-100.5,31.56-68.23,88.75-7.05,105.33,35.76,40.34-24.13,89.09-23.53,129.49,0,61.32-151.32,179.24,6.06,64.75,62.81,5.47,5.12,34.9,44.46,37.69,45.42,19.72,6.79,80.09-4.86,105.33,14.5l-99.54-10.63c1.87,28.77,35.56,24.65,57.98,32.86,11.17,4.09,21.14,11.45,31.89,16.43l-43.49-16.43-33.82-4.83c1.09,41.34,14.28,29.35,39.62,45.42,12.15,7.71,23.96,17.48,33.82,28.02l-68.61-37.69c-5.32,31.53-25.37,58.27-53.15,74.41,53.27,34.73,137.73,99.45,143.02,168.15,4.59,59.57-61.22,27.64-74.41-4.83l8.7,39.62c81.67,47.14,198,18.25,206.8-86.97,1.17-14.03-9.84-59.65,10.63-57.02,16.74,2.16,21.39,77.15,20.29,91.8-2.91,39.07-24.41,74.07-55.08,97.6-62.86,48.23-141.44,23.31-214.53,27.06-8.2,21.01-23.7,40.16-31.89,60.88-2.32,5.87-11.94,36.39-8.7,37.69,8.7,6.6,46.06,3.87,60.04,8.7,27.46,10.16,15.85,56.18-4.06,60.82-22.89,7.78-60.84-9.08-78.21-15.4-27.11-9.86-46.23-7.53-46.23-18.12-7.34-36.84-21.17-54.89-49.56-53.92s-37.1,2.19-37.1,11.94"/>
    <path class="cls-8" d="M435.21,522.03c45.73,38.1,92.49,75.67,128.53,123.69l111.13-119.83c40.08,17.89,114.65,85.15,129.49,126.59,3.92,10.94,10.35,31.39,3.87,37.69-10.63-27.07-18.41-49.37-36.72-72.48-6.71-8.47-73.52-70.76-78.28-68.61,24.58,76.94,25.55,163.04,2.9,240.62-4.52,15.47-28.34,82.07-47.35,78.28-5.02-1-11.53-22.5-27.06-28.99-43.22-18.07-96.26-5.42-125.63,30.92-71.02-88.04-91-206.57-66.68-316-42.36,30.4-84.41-6.49-127.56-10.63-1.04-4.79-8.44-37.49-6.76-38.65,34.39,19.92,74.17,28.92,114.03,25.13,8.64-.82,18.4-6.75,26.09-7.73Z"/>
    <path class="cls-1" d="M808.22,690.18c-3.5,3.4-2.17,4.51-8.7,3.87-8.23-.81-64.37-48.53-66.68-43.49,27.66,78.06-32.07,140.49-52.18,207.77-5.88,4.83-43.16,35.84-44.45,38.65-9.01-63.15-118.32-65.07-125.63,0-1.69-3.07-40.93-36.7-50.25-48.32-44.85-55.92-92.96-150.99-57.98-221.3-25.49-9.21-50.88-16.76-72.48-33.82-26.39-20.86-21.37-19.64-28.02-50.25,43.15,4.14,85.2,41.03,127.56,10.63-24.32,109.43-4.34,227.96,66.68,316,29.37-36.35,82.41-49,125.63-30.92,15.53,6.49,22.04,27.99,27.06,28.99,19.01,3.79,42.84-62.8,47.35-78.28,22.65-77.58,21.68-163.68-2.9-240.62,4.75-2.14,71.56,60.14,78.28,68.61,18.32,23.11,26.09,45.41,36.72,72.48Z"/>
    <path class="cls-1" d="M674.87,525.89l-111.13,119.83c-36.03-48.02-82.8-85.6-128.53-123.69,19.76-2.51,28.54,9.9,48.32,10.63-26.22-11.34-105.11-61.89-100.5-94.7,1.44-10.27,4.29-4.98,9.66-6.76,31.06,56.57,111.43,55.8,161.38,88.91,45.48-33.38,134.37-30.16,153.65-90.84,7.42.92,14.62-.4,15.46,8.7,2.98,32.01-73.12,84.11-100.5,94.7,2.21,5.29,34.9-12.27,37.69-12.56,10.32-1.08,8.71,3.22,14.5,5.8Z"/>
    <path class="cls-8" d="M707.72,429.26c-19.28,60.68-108.18,57.46-153.65,90.84-49.95-33.1-130.32-32.34-161.38-88.91,33.24-11.06,89.72,7.67,115,30.92,21.78,20.04,33.09,66.56,72.48,26.09,39.33-40.41,62.24-67.08,127.56-58.95Z"/>
    <path class="cls-1" d="M642.01,303.63c-38.11-18.41-72.22-40.84-116.93-30.92-21.05,4.67-43.62,31.47-62.81,13.53-15.58-14.57-19.63-73.27-60.88-67.65,33.19-37.8,68.36,61.96,79.24,63.78,45.25-28.23,91.93-28.1,137.22,0,11.69-3.11,43.82-97.93,78.28-64.75-21.15.06-37.28,19.56-46.39,36.72-1.42,2.67-13.36,29.24-13.53,30.92-.1.96,4.96,16.3,5.8,18.36Z"/>
    <path class="cls-1" d="M750.24,726.9c59.04,61.27,191.93,41.23,228.06-36.72-37.22,103.65-150.88,82.78-238.69,79.24,3.35-14.22,7.25-28.27,10.63-42.52Z"/>
    <path class="cls-8" d="M978.3,690.18c-36.13,77.95-169.02,97.99-228.06,36.72,1.38-5.84,1.99-11.48,2.9-17.39,6.99,4.78-.04,12.44.97,16.43,1.8,7.09,44.39,18.59,53.15,20.29,85.04,16.57,161.7-19.88,175.88-110.17,6.46,14.8,1.74,39.94-4.83,54.12Z"/>
    <path class="cls-2" d="M510.58,896.98c.28.51,1.57,11.28.97,11.6l-104.37,30.92c-18.29-16.74,27.31-21.86,37.69-28.02-.87-.69-67.42,3.69-43.49-6.76,34.42-15.03,90.59,20.59,58.95-56.05,9.32,11.62,48.56,45.25,50.25,48.32Z"/>
    <path class="cls-2" d="M680.66,858.32c-2.96,9.92-10.95,21.04-7.73,31.89,5.13,17.27,63.74,6.64,77.31,19.33-.22,6.71-38.16,1.1-42.52.97-1.79-.05-6.93-.67-7.73.97,1.94.94,3.86,2.02,5.8,2.9,7.55,3.41,40.03,10.5,38.65,20.29-.15,1.08-6.22,6.57-8.7,6.76-13.25,1.07-62.29-26.64-77.31-30.92-7.55-2.16-15.58-2.37-23.19,0-1.18-.74.68-12.91.97-13.53,1.29-2.81,38.58-33.82,44.45-38.65Z"/>
    <path class="cls-2" d="M692.26,232.12c10.75,19.52,7.21,46.75-3.87,65.71-5.77,4.09-5.71,5.29-13.53,7.73-13.67,1.94-10.06-16.92-19.33-21.26.9-16.74,18.43-50.89,36.72-52.18Z"/>
    <path class="cls-2" d="M441.01,282.37c-4.24,7.12-7.58,22.47-17.39,23.19-9.85-3.23-10.43-5.66-17.39-11.6-6.24-18.29-11.07-45.4,0-61.85,20.01,1.84,32.3,33.41,34.79,50.25Z"/>
    <path class="cls-8" d="M688.4,297.83c11.07-18.96,14.61-46.19,3.87-65.71,23.72-1.68,22.53,35.32,13.53,51.22-3.46,6.1-11.88,10.58-17.39,14.5Z"/>
    <path class="cls-8" d="M406.22,232.12c-11.07,16.44-6.24,43.55,0,61.85-2.74-2.33-8.01-3.42-11.6-8.7-10.72-15.75-14.16-55.52,11.6-53.15Z"/>
    <polygon class="cls-8" points="556 456.32 578.23 472.74 557.94 493.04 556 456.32"/>
    <polygon class="cls-8" points="550.21 454.38 548.27 493.04 527.98 472.74 550.21 454.38"/>
    <path class="cls-1" d="M709.65,425.39l-5.8-25.13c19.5-.46,20.82,7.83,16.43,27.06-2.53-3.11-7.05-1.9-10.63-1.93Z"/>
    <path class="cls-1" d="M392.69,398.33l-1.93,27.06c-1.58-.08-4.75,4.2-7.73.97.17-8.78-.67-25.69,9.66-28.02Z"/>
    <path class="cls-1" d="M423.61,305.56c9.81-.72,13.15-16.07,17.39-23.19.06.39,3.92,6.38,3.87,6.76-.16,1.12-10.63,18.75-11.6,19.33-3.43,2.05-7.39-2.15-9.66-2.9Z"/>
    <path class="cls-7" d="M674.87,305.56c-1.58.49-5.73,6.68-9.66,2.9-2.44-9.84-10.26-12.92-9.66-24.16,9.26,4.34,5.66,23.2,19.33,21.26Z"/>
    <path class="cls-4" d="M707.72,910.51l-1.93,3.87c-1.94-.88-3.86-1.96-5.8-2.9.8-1.64,5.94-1.02,7.73-.97Z"/>
    <g>
      <path class="cls-8" d="M642.01,303.63c9.7,23.85,40.83,46.2,54.12,68.61l-83.11,36.72c16.97-6.32,72.28-36.53,87.94-31.89,1.98.59,9.34,14.36,12.56,16.43-29.89,2.63-56.99,11.41-83.11,26.09-5.91,3.32-12.34,5.86-17.39,10.63,6.49,2.31,13.96-7.07,17.39-8.7,21.7-10.3,49.36-20.69,73.44-21.26l5.8,25.13c-31.53-.3-48.36-.59-78.28,11.6-14.99,6.11-36.68,26.47-52.18,23.19-3.18-.67-20.72-16.04-20.29-18.36.25-1.37,16.86-7.55,9.66-23.19-8.34-18.13-40.12-6.09-32.86,15.46,1.08,3.2,20.47,10.31-2.9,22.23-19.97,10.18-54.45-20.81-77.31-27.06-26.14-7.15-40.75-2.64-64.75-3.87l1.93-27.06c24.94-5.62,80.73,20.53,103.4,32.86-26.39-22.5-66.97-35.78-102.43-36.72-6.13-2.55,6.32-16.91,7.73-17.39,20.62-7.13,87,28.74,107.27,39.62-28.89-25.2-67.45-36.91-104.37-46.39l57.98-84.07c19.19,17.94,41.76-8.86,62.81-13.53,44.71-9.92,78.82,12.51,116.93,30.92Z"/>
      <path class="cls-3" d="M630.41,421.53c-3.43,1.63-10.9,11.01-17.39,8.7,5.05-4.77,11.48-7.31,17.39-10.63v1.93Z"/>
      <path class="cls-5" d="M457.44,338.42c16.63-1.57,34.03,16.62,37.69,31.89-25.56-20.08-36.43-29.55-64.75-4.83-2.48-10.7,18.54-26.25,27.06-27.06Z"/>
      <path class="cls-5" d="M635.25,338.42c11.13-.99,31.26,12.09,33.82,24.16-29.81-18.38-38.66-15.14-62.81,8.7-2.19-12.52,18.74-31.94,28.99-32.86Z"/>
    </g>
    <g>
      <path class="cls-2" d="M267.06,467.91c10.74,17.42,27.26,102.78,21.26,121.76-2.91.34-3.8,5.69-7.73,2.9-8.81-6.25-35.82-90.78-36.72-104.37-1.32-19.76,2.98-32.34,23.19-20.29Z"/>
      <path class="cls-9" d="M290.25,241.78h-1.93c-1.67-4.26-3.15-4.62-5.8-.97,2.03,4.52,5.69.66,5.8.97,2.36,6.68-2.62,3.38-1.93,4.83,10.9,22.98,23.16,43.48,21.26,70.54-.98-4.84-2.92-15.19-7.73-15.46-2.96-91.28-125.6-112.51-164.28-40.59-1.75-11.31,13.57-26.57,22.23-32.86,8.02-5.82,38.05-12.11,26.09-21.26,40.9-10.55,79.99,2.69,106.3,34.79Z"/>
      <path class="cls-8" d="M307.65,317.16c1.47,7.27-5.44,9.58,3.87,15.46-16.8,70.12-111.74,101.48-164.28,50.25,17.15,11.82,21.03,7.03,35.76,11.6,5.88,1.82,4.67,7.36,5.8,7.73,8.12,2.66,29.69,5.88,28.02-7.73,49.42-2.2,84.68-44.44,83.11-92.77,4.81.27,6.75,10.63,7.73,15.46Z"/>
      <path class="cls-10" d="M124.04,297.83c8.78,52.64,27.14,99.56,92.77,96.64,1.66,13.61-19.9,10.39-28.02,7.73-1.13-.37.08-5.91-5.8-7.73-14.73-4.56-18.6.22-35.76-11.6-31.72-21.86-41.76-68.54-32.86-104.37,8.12.2,8.42,11.86,9.66,19.33Z"/>
      <path class="cls-8" d="M135.64,261.11c-5.96,11.09-7.82,24.84-11.6,36.72-1.25-7.47-1.54-19.13-9.66-19.33,7.72-31.05,38.61-63.52,69.58-71.51,11.96,9.15-18.08,15.44-26.09,21.26-8.66,6.29-23.97,21.55-22.23,32.86Z"/>
      <path class="cls-8" d="M267.06,467.91c-20.21-12.05-24.51.53-23.19,20.29.9,13.58,27.91,98.12,36.72,104.37,3.93,2.79,4.82-2.56,7.73-2.9-9.64,30.5-31.29-28.73-34.79-39.62-3.52-10.97-17.37-73.74-15.46-81.17,2.84-11.09,20.19-15.25,28.99-.97Z"/>
      <path class="cls-10" d="M311.51,332.62c-9.3-5.88-2.4-8.19-3.87-15.46,1.9-27.07-10.36-47.56-21.26-70.54-.69-1.45,4.29,1.85,1.93-4.83h1.93c22.28,27.18,29.76,55.37,21.26,90.84Z"/>
      <path class="cls-8" d="M240.97,419.59c5.52.59,11.05,21.02,10.63,22.23-.85,2.44-13.77,5.37-14.5,4.83-1.36-1-10.49-28.6,3.87-27.06Z"/>
      <path class="cls-10" d="M288.32,241.78c-.11-.3-3.77,3.55-5.8-.97,2.64-3.66,4.13-3.29,5.8.97Z"/>
      <g>
        <path class="cls-5" d="M299.92,301.7c1.57,48.33-33.68,90.57-83.11,92.77-65.63,2.92-83.99-43.99-92.77-96.64,3.77-11.88,5.63-25.63,11.6-36.72,38.68-71.92,161.32-50.7,164.28,40.59Z"/>
        <g>
          <path class="cls-1" d="M253.53,247.58c16.47,9.31,30.45,31.2,30.92,50.25,1.82,72.58-92.87,103.97-129.49,45.42-38.36-61.33,33.29-132.55,98.57-95.67Z"/>
          <path class="cls-6" d="M253.53,247.58c-65.28-36.88-136.93,34.34-98.57,95.67,36.62,58.55,131.31,27.16,129.49-45.42,5.96,61.32-61.42,102.9-113.06,67.65-77.1-52.62,4.25-175.06,82.14-117.9Z"/>
          <path class="cls-8" d="M215.85,247.58c2.4-.19,11.58-.64,12.56.97-35.93,18.26-57.48,52.99-55.08,93.74-29.36-34.48-1.37-91.31,42.52-94.7Z"/>
        </g>
      </g>
    </g>
    <path class="cls-10" d="M234.99,301.7c4.69,15.25,2.67,24.28,22.23,26.09-9.98,7.36-18.47,6.77-18.36,22.23-4.45-10.9-7.48-17.1-20.29-18.36,16.13-8.27,15.85-12.38,16.43-29.96Z"/>
  </g>
</svg>